<mxfile host="app.diagrams.net" modified="2023-02-08T08:56:42.891Z" agent="5.0 (Windows NT 10.0; Win64; x64) AppleWebKit/537.36 (KHTML, like Gecko) Chrome/109.0.0.0 Safari/537.36" etag="mU_0dvWEAR_QPlUJDM5S" version="20.8.16" type="github">
  <diagram id="C5RBs43oDa-KdzZeNtuy" name="Page-1">
    <mxGraphModel dx="1434" dy="756" grid="1" gridSize="10" guides="1" tooltips="1" connect="1" arrows="1" fold="1" page="1" pageScale="1" pageWidth="827" pageHeight="1169" math="0" shadow="0">
      <root>
        <mxCell id="WIyWlLk6GJQsqaUBKTNV-0" />
        <mxCell id="WIyWlLk6GJQsqaUBKTNV-1" parent="WIyWlLk6GJQsqaUBKTNV-0" />
        <mxCell id="xPiCb2O-aPHUSNXwrIQw-3" style="edgeStyle=orthogonalEdgeStyle;rounded=0;orthogonalLoop=1;jettySize=auto;html=1;entryX=0.068;entryY=-0.014;entryDx=0;entryDy=0;entryPerimeter=0;" edge="1" parent="WIyWlLk6GJQsqaUBKTNV-1" source="xPiCb2O-aPHUSNXwrIQw-0" target="xPiCb2O-aPHUSNXwrIQw-1">
          <mxGeometry relative="1" as="geometry" />
        </mxCell>
        <mxCell id="xPiCb2O-aPHUSNXwrIQw-0" value="Apple business + Dustin DEP" style="whiteSpace=wrap;html=1;aspect=fixed;" vertex="1" parent="WIyWlLk6GJQsqaUBKTNV-1">
          <mxGeometry x="20" y="20" width="100" height="100" as="geometry" />
        </mxCell>
        <mxCell id="xPiCb2O-aPHUSNXwrIQw-12" style="edgeStyle=orthogonalEdgeStyle;rounded=0;orthogonalLoop=1;jettySize=auto;html=1;" edge="1" parent="WIyWlLk6GJQsqaUBKTNV-1" source="xPiCb2O-aPHUSNXwrIQw-1" target="xPiCb2O-aPHUSNXwrIQw-11">
          <mxGeometry relative="1" as="geometry" />
        </mxCell>
        <mxCell id="xPiCb2O-aPHUSNXwrIQw-1" value="Endpoint" style="whiteSpace=wrap;html=1;aspect=fixed;" vertex="1" parent="WIyWlLk6GJQsqaUBKTNV-1">
          <mxGeometry x="310" y="135" width="220" height="220" as="geometry" />
        </mxCell>
        <mxCell id="xPiCb2O-aPHUSNXwrIQw-4" value="Automated enrollment with DEP iphones" style="text;html=1;align=center;verticalAlign=middle;resizable=0;points=[];autosize=1;strokeColor=none;fillColor=none;" vertex="1" parent="WIyWlLk6GJQsqaUBKTNV-1">
          <mxGeometry x="120" y="40" width="250" height="30" as="geometry" />
        </mxCell>
        <mxCell id="xPiCb2O-aPHUSNXwrIQw-6" style="edgeStyle=orthogonalEdgeStyle;rounded=0;orthogonalLoop=1;jettySize=auto;html=1;" edge="1" parent="WIyWlLk6GJQsqaUBKTNV-1" source="xPiCb2O-aPHUSNXwrIQw-5">
          <mxGeometry relative="1" as="geometry">
            <mxPoint x="280" y="245" as="targetPoint" />
          </mxGeometry>
        </mxCell>
        <mxCell id="xPiCb2O-aPHUSNXwrIQw-5" value="old phones??" style="whiteSpace=wrap;html=1;aspect=fixed;" vertex="1" parent="WIyWlLk6GJQsqaUBKTNV-1">
          <mxGeometry x="10" y="190" width="110" height="110" as="geometry" />
        </mxCell>
        <mxCell id="xPiCb2O-aPHUSNXwrIQw-7" value="Find out how to enroll non dep" style="text;html=1;align=center;verticalAlign=middle;resizable=0;points=[];autosize=1;strokeColor=none;fillColor=none;" vertex="1" parent="WIyWlLk6GJQsqaUBKTNV-1">
          <mxGeometry x="120" y="215" width="190" height="30" as="geometry" />
        </mxCell>
        <mxCell id="xPiCb2O-aPHUSNXwrIQw-10" style="edgeStyle=orthogonalEdgeStyle;rounded=0;orthogonalLoop=1;jettySize=auto;html=1;entryX=1.014;entryY=0.055;entryDx=0;entryDy=0;entryPerimeter=0;" edge="1" parent="WIyWlLk6GJQsqaUBKTNV-1" source="xPiCb2O-aPHUSNXwrIQw-9" target="xPiCb2O-aPHUSNXwrIQw-1">
          <mxGeometry relative="1" as="geometry" />
        </mxCell>
        <mxCell id="xPiCb2O-aPHUSNXwrIQw-9" value="Plan and Set structure for&amp;nbsp;&lt;br&gt;Policies and Compliance" style="whiteSpace=wrap;html=1;aspect=fixed;" vertex="1" parent="WIyWlLk6GJQsqaUBKTNV-1">
          <mxGeometry x="620" y="30" width="200" height="200" as="geometry" />
        </mxCell>
        <mxCell id="xPiCb2O-aPHUSNXwrIQw-11" value="Iphone" style="whiteSpace=wrap;html=1;aspect=fixed;" vertex="1" parent="WIyWlLk6GJQsqaUBKTNV-1">
          <mxGeometry x="350" y="530" width="180" height="180" as="geometry" />
        </mxCell>
        <mxCell id="xPiCb2O-aPHUSNXwrIQw-13" value="Configuration profile + MDM certificate&amp;nbsp;" style="text;html=1;align=center;verticalAlign=middle;resizable=0;points=[];autosize=1;strokeColor=none;fillColor=none;" vertex="1" parent="WIyWlLk6GJQsqaUBKTNV-1">
          <mxGeometry x="440" y="425" width="230" height="30" as="geometry" />
        </mxCell>
        <mxCell id="xPiCb2O-aPHUSNXwrIQw-14" value="&amp;nbsp;MDM Certificate" style="text;html=1;align=center;verticalAlign=middle;resizable=0;points=[];autosize=1;strokeColor=none;fillColor=none;" vertex="1" parent="WIyWlLk6GJQsqaUBKTNV-1">
          <mxGeometry x="140" y="70" width="110" height="30" as="geometry" />
        </mxCell>
        <mxCell id="xPiCb2O-aPHUSNXwrIQw-15" value="MDM certificate?" style="text;html=1;align=center;verticalAlign=middle;resizable=0;points=[];autosize=1;strokeColor=none;fillColor=none;" vertex="1" parent="WIyWlLk6GJQsqaUBKTNV-1">
          <mxGeometry x="140" y="260" width="110" height="30" as="geometry" />
        </mxCell>
        <mxCell id="xPiCb2O-aPHUSNXwrIQw-16" value="Policies" style="text;html=1;align=center;verticalAlign=middle;resizable=0;points=[];autosize=1;strokeColor=none;fillColor=none;" vertex="1" parent="WIyWlLk6GJQsqaUBKTNV-1">
          <mxGeometry x="440" y="455" width="70" height="30" as="geometry" />
        </mxCell>
        <mxCell id="xPiCb2O-aPHUSNXwrIQw-17" value="&lt;font color=&quot;#009900&quot;&gt;DONE&lt;/font&gt;" style="text;html=1;align=center;verticalAlign=middle;resizable=0;points=[];autosize=1;strokeColor=none;fillColor=none;" vertex="1" parent="WIyWlLk6GJQsqaUBKTNV-1">
          <mxGeometry x="35" y="20" width="60" height="30" as="geometry" />
        </mxCell>
      </root>
    </mxGraphModel>
  </diagram>
</mxfile>
